<?xml version="1.0" standalone="yes"?>
<svg xmlns="http://www.w3.org/2000/svg" width="620" height="620">
<path style="fill:#ffffff; stroke:none;" d="M0 0L0 620L620 620L620 0L0 0z"/>
<path style="fill:#58da67; stroke:none;" d="M256 310L364 310L364 242C364 234.714 366.526 221.547 362.972 215.059C359.337 208.422 346.323 211 340 211L279 211C273.085 211 261.635 208.755 257.603 214.148C253.434 219.725 256 233.295 256 240L256 310z"/>
<path style="fill:#34b358; stroke:none;" d="M202 247L239 247L239 229C231.002 229 208.814 225.178 203.603 232.148C200.784 235.919 202 242.556 202 247z"/>
<path style="fill:#0a8142; stroke:none;" d="M239 229L239 247L202 247L202 310L251 310L251 247L255 247L255 229L239 229z"/>
<path style="fill:#096537; stroke:none;" d="M255 229L255 247L251 247L251 310L202 310L202 369C202 374.754 199.89 385.466 205.148 389.397C208.914 392.212 215.575 391 220 391L256 391L256 277C256 263.485 260.206 241.407 255 229z"/>
<path style="fill:#0a8142; stroke:none;" d="M364 229L364 247L368 247L368 310L418 310L418 247L381 247L381 229L364 229z"/>
<path style="fill:#34b358; stroke:none;" d="M381 229L381 247L418 247C418 242.556 419.216 235.919 416.397 232.148C411.186 225.178 388.998 229 381 229z"/>
<path style="fill:#096537; stroke:none;" d="M364 247L364 391L400 391C404.425 391 411.086 392.212 414.852 389.397C420.11 385.466 418 374.754 418 369L418 310L368 310L368 247L364 247z"/>
<path style="fill:#34b358; stroke:none;" d="M256 310L256 391L364 391L364 310L256 310z"/>
<path style="fill:#0a8142; stroke:none;" d="M256 391C256 396.412 254.366 404.854 260.059 407.972C265.532 410.97 275.893 409 282 409L336 409C342.58 409 354.06 411.193 359.941 407.972C365.634 404.854 364 396.412 364 391L256 391z"/>
</svg>
