<?xml version="1.0" standalone="yes"?>
<svg xmlns="http://www.w3.org/2000/svg" width="540" height="540">
<path style="fill:#010101; stroke:none;" d="M0 0L0 540L540 540L540 0L0 0z"/>
<path style="fill:#01e4fe; stroke:none;" d="M236 45L236 217L181 217C198.366 241.653 225.657 262.657 247 284C251.677 288.677 263.102 304.793 270 304.793C276.898 304.793 288.323 288.677 293 284C314.343 262.657 341.634 241.653 359 217L304 217L304 45L236 45z"/>
<path style="fill:#455b65; stroke:none;" d="M304 78L304 216L360 216L294 282C289.225 286.775 276.969 303.944 270 303.944C263.031 303.944 250.775 286.775 246 282L180 216L236 216L236 78L164 78C148.571 78 132.787 77.4472 120 87.5178C100.88 102.577 100.119 127.901 96.4136 150C88.2538 198.658 80.1425 247.326 72.0802 296C68.3374 318.597 62.3959 342.161 82.0394 359.699C95.1489 371.404 110.574 371 127 371L178 371C262.058 371 347.035 374.67 431 370.961C453.996 369.945 472.109 349.629 472.741 327C473.205 310.344 467.171 291.445 464.414 275C458.601 240.339 452.823 205.672 447.08 171C443.342 148.429 443.158 118.627 430.452 99C416.828 77.9551 395.445 78 373 78L304 78z"/>
<path style="fill:#778f9b; stroke:none;" d="M180 216L180 217L236 217L218 216L180 216M304 216L304 217L360 217L342 216L304 216M472 329C470.11 372.337 425.508 371 394 371L145 371C113.51 371 71.4433 372.157 68 330L67 330L67 422C67 440.021 66.6735 458.384 81.0903 471.7C95.6764 485.172 113.572 484 132 484L227 484L394 484C416.877 484 444.783 488.47 461.535 468.961C480.034 447.418 473 410.375 473 384L473 347C473 341.381 474.189 334.216 472 329z"/>
<path style="fill:#65db1a; stroke:none;" d="M390 405.468C361.094 410.874 369.323 454.908 398 449.532C426.185 444.25 418.051 400.221 390 405.468z"/>
</svg>
